# xmcd
#
# Track frame offsets: 
#        150
#        19587
#        35390
#        47124
#        68029
#        83351
#        98764
#        115534
#        133339
#        142398
#        153611
#        162647
#        178552
#
# Disc length: 2676 seconds
#
# Revision: 0
# Processed by: cddbd v1.5.2PL0 Copyright (c) Steve Scherf et al.
# Submitted via: ExactAudioCopy v0.99pb3
#
DISCID=ac0a720d
DTITLE=The Resophonics - Last Long Winter
DYEAR=2007
DGENRE=Bluegrass
TTITLE0=Say Goodbye Again
TTITLE1=Walk You Home
TTITLE2=Mandarin Hornet
TTITLE3=Dance at the Plough
TTITLE4=When the Rain Comes
TTITLE5=4 of Diamonds
TTITLE6=For A Moment
TTITLE7=Float Away
TTITLE8=Tanbo Harvest
TTITLE9=Sweetest of All
TTITLE10=Bicycle Rider
TTITLE11=Truth to Tell
TTITLE12=Second Gear
EXTD=
EXTT0=
EXTT1=
EXTT2=
EXTT3=
EXTT4=
EXTT5=
EXTT6=
EXTT7=
EXTT8=
EXTT9=
EXTT10=
EXTT11=
EXTT12=
PLAYORDER=
